<svg width="106" height="33" viewBox="0 0 106 33" fill="none" xmlns="http://www.w3.org/2000/svg">
<path d="M61.9469 12.3223C62.0264 12.0573 62.1059 11.8054 62.1854 11.5402C62.7946 9.48525 63.4039 7.44348 64.0131 5.38831L64.0926 5.14958C64.159 4.91109 64.3841 4.76532 64.6224 4.76532H66.6356C67.1391 4.76532 67.2451 4.91109 67.0727 5.38831L66.2782 7.49628C65.3906 9.80332 64.5032 12.1235 63.6159 14.4305C63.5894 14.5101 63.5498 14.5894 63.5233 14.669C63.4304 14.9474 63.1522 15.1331 62.861 15.1066C62.278 15.0934 61.6953 15.0934 61.1125 15.1066C60.7019 15.12 60.4636 14.9343 60.3178 14.5629C59.9866 13.688 59.6424 12.7998 59.3113 11.9247C58.5165 9.84298 57.7086 7.76154 56.9139 5.66671C56.8344 5.50756 56.7814 5.32212 56.7418 5.14958C56.7019 4.88457 56.7948 4.75193 57.0595 4.75193C57.8146 4.7388 58.5695 4.75193 59.3113 4.75193C59.629 4.75193 59.7749 4.96414 59.8544 5.24254C60 5.74629 60.1456 6.26343 60.3046 6.76718C60.8478 8.61014 61.3775 10.4662 61.9204 12.3092C61.9073 12.3223 61.9204 12.3223 61.9469 12.3223Z" fill="white"/>
<path d="M71.3244 9.93552V14.7085C71.2979 14.9735 71.1786 15.093 70.9138 15.1061C70.1986 15.1195 69.4964 15.1195 68.7812 15.1061C68.5164 15.1061 68.397 14.9735 68.3705 14.7216C68.3574 14.6421 68.3574 14.5493 68.3574 14.4698V5.29517C68.3705 4.88413 68.4765 4.76489 68.8872 4.76489H70.7944C71.205 4.76489 71.3244 4.88413 71.3244 5.29517V9.93552Z" fill="white"/>
<path d="M69.8541 0.00675995C70.1191 -0.0197665 70.3839 0.0332848 70.6357 0.13939C71.1521 0.338212 71.5097 0.815434 71.5362 1.37249C71.6422 2.57881 70.8344 3.18866 69.7615 3.16214C69.6159 3.16214 69.47 3.13561 69.3244 3.10909C68.5031 2.91026 68.0794 2.27388 68.1589 1.3591C68.225 0.630004 68.7946 0.0863376 69.576 0.0201479C69.6686 0.00675838 69.7615 -0.00637694 69.8541 0.00675995Z" fill="white"/>
<path d="M105.987 9.11401V9.16706C105.934 9.11401 105.907 9.03443 105.934 8.96824V8.86213C105.934 8.86213 105.934 8.84875 105.947 8.84875H105.934V8.71637H105.96C105.96 8.70298 105.947 8.70298 105.947 8.68984C105.92 8.43797 105.867 8.18584 105.801 7.94735C105.311 6.19711 104.212 5.04384 102.424 4.5929C101.589 4.39407 100.741 4.36755 99.8939 4.50018C98.1058 4.76545 96.8209 5.71989 96.1986 7.41708C95.5891 9.03443 95.6024 10.8112 96.2117 12.4285C96.7414 13.9001 97.8012 14.8283 99.3243 15.2128C100.132 15.4116 100.98 15.4647 101.814 15.3454C104.596 15.014 105.748 12.9058 105.934 11.0762H105.92V10.8905C105.907 10.8112 105.894 10.7448 105.973 10.6917V10.7182C105.973 10.7051 105.987 10.6786 106 10.6652V9.14054C106 9.1274 105.987 9.1274 105.987 9.11401ZM102.808 11.633C102.728 11.9114 102.609 12.1635 102.437 12.402C102.145 12.8131 101.682 13.0783 101.179 13.118C100.927 13.1445 100.675 13.1445 100.424 13.0915C99.8674 12.9853 99.4038 12.6142 99.1787 12.0971C98.9798 11.6861 98.8607 11.2354 98.8211 10.7847C98.7547 10.0023 98.7416 9.22011 98.9271 8.4511C98.9932 8.14617 99.1257 7.84125 99.2844 7.57598C99.5759 7.09876 100.079 6.79383 100.635 6.75417C100.887 6.72764 101.139 6.72764 101.391 6.78069C101.92 6.88655 102.357 7.23139 102.596 7.722C102.821 8.18584 102.954 8.70298 102.98 9.22012C102.993 9.45885 103.006 9.69734 102.993 9.93608C103.033 10.5194 102.967 11.0896 102.808 11.633Z" fill="white"/>
<path d="M82.7679 0.102417H80.9268C80.4235 0.102417 80.3307 0.195389 80.3307 0.699139V4.9949C80.3307 5.08762 80.3705 5.18033 80.3042 5.2733C80.185 5.25991 80.1187 5.18033 80.026 5.12753C78.6485 4.3186 77.2049 4.17283 75.7479 4.84888C74.7281 5.32635 74.0923 6.18808 73.6817 7.20897C73.2844 8.18994 73.1916 9.22422 73.2181 10.2716C73.2181 11.2526 73.4432 12.2204 73.8803 13.0956C74.3835 14.0634 75.1122 14.8059 76.1717 15.1242C77.6155 15.5749 78.9665 15.3495 80.1982 14.4348C80.291 14.3817 80.344 14.2887 80.4632 14.2622C80.5293 14.4082 80.5823 14.5671 80.6088 14.7263C80.6618 14.9385 80.8473 15.0843 81.0724 15.0843H81.3904C81.8672 15.0843 82.3308 15.0977 82.7941 15.0843C83.1651 15.0843 83.2711 14.965 83.2843 14.5805V0.606421C83.2711 0.195388 83.1652 0.102417 82.7679 0.102417ZM80.344 9.8606V12.2735C80.3705 12.4326 80.2777 12.5784 80.132 12.6449C79.4963 13.0028 78.7677 13.1486 78.0527 13.0425C77.4432 12.9763 76.9134 12.6049 76.6353 12.0615C76.4233 11.6371 76.3042 11.1864 76.2645 10.7223C76.1585 9.88713 76.2247 9.03853 76.4233 8.22986C76.4897 8.00451 76.5692 7.7923 76.6883 7.58009C76.9664 7.0632 77.4962 6.73175 78.0789 6.69183C78.781 6.62564 79.4829 6.75827 80.1187 7.04981C80.2777 7.10286 80.3705 7.26202 80.3572 7.43432C80.3307 8.25638 80.344 9.05192 80.344 9.8606Z" fill="white"/>
<path d="M90.7682 10.9048C91.5362 10.8517 92.3045 10.706 92.9932 10.3346C93.6953 9.98999 94.1855 9.34022 94.3311 8.57121C94.4237 8.09398 94.4237 7.59024 94.3177 7.11301C94.0396 5.91958 93.2847 5.17709 92.1457 4.79259C91.51 4.59377 90.8343 4.51419 90.1721 4.54071C87.9469 4.59377 86.2516 5.72076 85.5629 7.94822C85.0992 9.4198 85.1654 10.9179 85.6159 12.3897C86.0795 13.901 87.139 14.816 88.649 15.2271C89.2978 15.386 89.9735 15.4524 90.6357 15.4259C91.6026 15.4125 92.5695 15.2271 93.4833 14.8822C93.8675 14.7364 93.9601 14.6038 93.9601 14.1928V13.2381C93.947 12.8538 93.788 12.7212 93.4038 12.8139C93.1126 12.8935 92.8345 12.9597 92.543 13.0261C91.6556 13.2381 90.7283 13.278 89.8278 13.1188C88.9271 12.9465 88.3178 12.4294 88.0793 11.5278C88.0132 11.2628 87.9602 10.9975 87.9337 10.7191C87.9998 10.7191 88.0662 10.7191 88.1192 10.7456C88.9932 10.9048 89.8806 10.971 90.7682 10.9048ZM87.9998 8.78342C88.0927 8.26628 88.2119 7.76253 88.5296 7.33836C89.0197 6.68859 89.6953 6.50291 90.4636 6.58249C90.5297 6.58249 90.5827 6.60901 90.6488 6.60901C91.5761 6.75503 91.8012 7.49727 91.6291 8.21323C91.4966 8.74376 91.0595 8.94258 90.5693 9.03529C90.3046 9.08835 90.0265 9.11487 89.7483 9.10174C89.2052 9.08835 88.6755 9.04868 88.1457 8.9691C88.0263 8.95571 87.9733 8.90266 87.9998 8.78342Z" fill="white"/>
<path d="M52.4997 32.5945C51.7769 32.5554 51.0541 32.5288 50.3312 32.476C48.3975 32.3303 46.4769 32.0387 44.5961 31.6012C38.0928 30.0897 32.3842 27.0535 27.4042 22.6385C26.9406 22.2275 26.5034 21.8033 26.0532 21.3789C25.9472 21.2862 25.8546 21.1536 25.8016 21.0209C25.7221 20.8355 25.7617 20.6364 25.8942 20.4906C26.0267 20.3449 26.2387 20.2918 26.4239 20.3714C26.5433 20.4245 26.6624 20.4775 26.7684 20.5437C31.5233 23.4871 36.7153 25.635 42.1591 26.9078C43.9869 27.3319 45.828 27.6634 47.6822 27.9021C50.3446 28.2336 53.0332 28.3528 55.7087 28.2601C57.1526 28.2202 58.5828 28.0875 60.0133 27.9021C63.3511 27.4777 66.6492 26.7221 69.8413 25.6615C71.5234 25.1045 73.1657 24.4681 74.7683 23.7256C75.0068 23.5932 75.2983 23.5533 75.563 23.6197C76.0002 23.7256 76.2652 24.1765 76.1592 24.6141C76.1458 24.6669 76.1193 24.7334 76.0928 24.7864C75.987 24.9852 75.8412 25.1575 75.6559 25.2902C74.1325 26.4833 72.4903 27.5307 70.7552 28.4059C67.4836 30.0631 63.9868 31.2432 60.3843 31.9192C58.3088 32.2898 56.2203 32.5149 54.1185 32.595L54.1061 32.5955V32.6486H52.5166V32.5955L52.4997 32.5945ZM76.8744 19.6686C77.7484 19.6951 78.6095 19.7482 79.457 19.9735C79.6955 20.0399 79.9207 20.1195 80.1458 20.2256C80.4504 20.3449 80.6493 20.6364 80.6889 20.9547C80.7419 21.3258 80.7553 21.7104 80.7288 22.0949C80.5564 24.362 79.8545 26.5498 78.689 28.4986C78.265 29.2014 77.7484 29.8378 77.1525 30.3946C77.0334 30.5138 76.8875 30.6068 76.7285 30.6599C76.4769 30.726 76.3182 30.5934 76.3048 30.3415C76.3182 30.2089 76.3447 30.0763 76.3974 29.9439C76.861 28.6977 77.3115 27.4646 77.6692 26.1784C77.8809 25.4758 78.0268 24.7599 78.1194 24.0305C78.1459 23.7655 78.159 23.5003 78.1325 23.2352C78.1194 22.7843 77.8279 22.3998 77.391 22.2674C76.9804 22.1348 76.5564 22.0552 76.1193 22.0287C74.9008 21.9756 73.6823 22.0287 72.4769 22.1878L70.8743 22.3866C70.7022 22.3998 70.5432 22.3866 70.4506 22.2275C70.3577 22.0683 70.3975 21.9094 70.4902 21.7503C70.5962 21.6045 70.7287 21.4719 70.8877 21.3789C71.8677 20.6763 72.967 20.2522 74.1325 19.9735C75.0333 19.7881 75.9472 19.6951 76.8744 19.6686Z" fill="#00A8E1"/>
<path d="M10.1588 8.82511C10.1058 8.13567 9.92059 7.45938 9.64247 6.83613C9.09935 5.696 8.26497 4.8608 6.99348 4.56901C5.53648 4.25095 4.22511 4.56901 3.03311 5.45752C2.95361 5.53684 2.86099 5.60329 2.75499 5.65634C2.72849 5.64295 2.70199 5.62981 2.70199 5.61642C2.66237 5.48379 2.63587 5.35141 2.59599 5.21878C2.48999 4.88733 2.35749 4.76809 2.00012 4.76809C1.60262 4.76809 1.192 4.78122 0.794748 4.76809C0.490124 4.7547 0.212 4.79436 0 5.0331C0 9.67345 4.92661e-07 14.3272 0.0131243 18.9541C0.185501 19.2328 0.450247 19.2856 0.754871 19.2725C1.23187 19.2593 1.70862 19.2725 2.18537 19.2725C3.01999 19.2725 3.01999 19.2725 3.01999 18.4504V14.6718C3.01999 14.5791 2.98012 14.473 3.07274 14.3934C3.73499 14.9105 4.54311 15.2288 5.37748 15.3082C6.54298 15.4276 7.60273 15.1359 8.4901 14.3403C9.13897 13.7439 9.61597 12.9748 9.86759 12.1263C10.2252 11.0392 10.2517 9.93871 10.1588 8.82511ZM46.0928 10.7739C47.0862 10.9596 48.1061 10.9727 49.0995 10.8138C49.6822 10.7342 50.2385 10.5617 50.7551 10.2833C51.351 9.93871 51.7881 9.46149 51.9736 8.79858C52.4372 7.12792 51.722 5.44413 49.9868 4.82089C49.1391 4.54249 48.2383 4.44977 47.351 4.56901C45.2582 4.80775 43.8941 5.96127 43.2715 7.96312C42.8344 9.32885 42.8874 10.7209 43.245 12.0997C43.7086 13.8631 44.8741 14.9105 46.6357 15.2816C47.6425 15.5072 48.6623 15.4673 49.6688 15.3082C50.1986 15.2154 50.7286 15.0828 51.2318 14.884C51.5364 14.7647 51.6955 14.5791 51.6821 14.2342C51.669 13.9161 51.6821 13.5847 51.6821 13.2532C51.6821 12.8556 51.5231 12.7361 51.1392 12.8291C50.7551 12.9218 50.3841 13.0014 50 13.0809C49.1787 13.2532 48.3312 13.2532 47.51 13.1075C46.3841 12.8819 45.6557 11.914 45.7218 10.7209C45.841 10.7342 45.9735 10.7474 46.0928 10.7739ZM27.8677 15.1227H26.0927C25.629 15.1227 25.5099 14.9901 25.5099 14.5394V5.33802C25.5099 5.23192 25.5233 5.12607 25.5498 5.01996C25.6025 4.8608 25.7615 4.76809 25.9205 4.76809H27.5762C27.8147 4.76809 27.9603 4.91385 28.0398 5.1392C28.1059 5.32489 28.1458 5.49718 28.2119 5.696C28.3444 5.696 28.4239 5.60329 28.5165 5.55023C29.2452 5.09954 30.0131 4.71503 30.8743 4.55587C31.5365 4.42324 32.1988 4.42324 32.861 4.55587C33.4834 4.6885 34.0396 5.05962 34.3973 5.5899C34.4238 5.62981 34.4503 5.65634 34.4768 5.68286C34.4636 5.696 34.4768 5.696 34.4901 5.72253C34.8213 5.52371 35.1655 5.3115 35.5231 5.12606C36.4504 4.64859 37.4834 4.4101 38.5297 4.4629C39.2849 4.50282 39.9736 4.71503 40.5034 5.27183C41.0066 5.78897 41.1921 6.42535 41.2451 7.11478C41.2582 7.26055 41.2582 7.40632 41.2582 7.56548V14.4333C41.2582 15.0298 41.1787 15.1093 40.5829 15.1093H38.9669C38.8609 15.1093 38.7549 15.1093 38.6491 15.0962C38.4901 15.0828 38.3576 14.9502 38.3311 14.7913C38.3046 14.6452 38.3046 14.4995 38.3046 14.3537V8.215C38.318 7.96313 38.2915 7.72464 38.2251 7.4859C38.1191 7.07487 37.7484 6.78333 37.3246 6.75681C36.543 6.70375 35.7616 6.86266 35.0464 7.19411C34.9404 7.22064 34.8743 7.32674 34.8874 7.43285V14.4068C34.8874 14.5394 34.8874 14.6586 34.8609 14.7913C34.8609 14.9767 34.7153 15.1093 34.5298 15.1093C34.3311 15.1227 34.1325 15.1227 33.9205 15.1227H32.5165C32.0264 15.1227 31.9206 15.0032 31.9206 14.5129V8.24153C31.9206 8.01618 31.9073 7.77769 31.8543 7.55209C31.7616 7.1014 31.3775 6.78333 30.9273 6.75681C30.1325 6.70375 29.3244 6.86266 28.6092 7.2075C28.5034 7.23403 28.437 7.35327 28.4635 7.45938V14.526C28.4635 15.0166 28.3575 15.1227 27.8677 15.1227ZM14.4637 15.1093H12.7417C12.6491 15.1093 12.5431 15.1093 12.4505 15.0962C12.2781 15.0828 12.1456 14.937 12.1325 14.7647C12.1191 14.6586 12.1191 14.5525 12.1191 14.4464V5.43099C12.1191 4.82089 12.1855 4.75469 12.7947 4.75469H14.0662C14.4107 4.75469 14.5694 4.87394 14.6623 5.20539C14.7549 5.53684 14.8345 5.8683 14.914 6.22628C15.0066 6.19975 15.0861 6.1467 15.1391 6.06737C15.3776 5.82863 15.6292 5.60329 15.8939 5.39107C16.5827 4.8608 17.4438 4.59554 18.3047 4.66198C18.6489 4.67511 18.7683 4.78122 18.7948 5.11268C18.8213 5.56337 18.8079 6.02746 18.8079 6.47815C18.8213 6.66384 18.8079 6.83613 18.7814 7.02182C18.7284 7.26055 18.6358 7.35327 18.3973 7.3798C18.2118 7.39319 18.0397 7.3798 17.8542 7.36666C16.9668 7.28708 16.1059 7.45938 15.2716 7.73778C15.0861 7.80422 15.0861 7.9366 15.0861 8.08262V14.4464C15.0861 14.5657 15.0861 14.6718 15.073 14.7913C15.0596 14.9636 14.9271 15.0962 14.7549 15.0962C14.6623 15.1093 14.5563 15.1093 14.4637 15.1093ZM22.4637 15.0828H20.6226C20.5562 15.0828 20.5034 15.0828 20.4371 15.0697C20.2516 15.0563 20.0928 14.9105 20.0794 14.7248C20.0663 14.6187 20.0663 14.5129 20.0663 14.4068C20.0794 12.9349 20.0794 11.4237 20.0794 9.91218V5.20539C20.0928 4.88733 20.2119 4.76808 20.5297 4.75469C21.2184 4.74156 21.9072 4.74156 22.5959 4.75469C22.9005 4.75469 22.9934 4.84741 23.0199 5.15234C23.033 5.27183 23.033 5.37794 23.033 5.49718V14.3272C23.033 14.473 23.0199 14.6187 23.0065 14.7647C22.9934 14.937 22.8609 15.0563 22.6888 15.0697C22.6093 15.0828 22.5432 15.0828 22.4637 15.0828ZM6.99348 11.5695C6.9006 11.9805 6.68885 12.3516 6.38423 12.63C6.03973 12.9218 5.61598 13.0941 5.16548 13.0941C4.49011 13.134 3.82786 12.988 3.23174 12.6699C3.08611 12.6035 2.99349 12.4577 3.00662 12.2985V9.89879C3.00662 9.10351 3.01999 8.30797 3.00662 7.51243C2.99349 7.32674 3.09924 7.16759 3.27161 7.1014C3.99999 6.75681 4.75486 6.59765 5.54961 6.75681C6.10585 6.83613 6.58285 7.19411 6.80798 7.71125C7.0066 8.13567 7.12572 8.5995 7.15222 9.06359C7.23172 9.91218 7.23172 10.7608 6.99348 11.5695ZM45.7617 8.74553C45.8013 8.42721 45.894 8.12228 46.0133 7.83049C46.4106 6.86266 47.245 6.53121 48.0927 6.58426C48.3312 6.59765 48.5695 6.6507 48.7946 6.74342C49.1391 6.88919 49.3642 7.2075 49.4041 7.57862C49.4437 7.80422 49.4306 8.0427 49.3642 8.26805C49.2052 8.74553 48.8211 8.94435 48.3577 9.03706C48.0796 9.10351 47.7881 9.13003 47.4966 9.10351C46.9802 9.10351 46.4502 9.06359 45.9338 8.98401C45.7352 8.95748 45.7352 8.95748 45.7617 8.74553ZM21.6159 0.0082419C21.8279 -0.00489498 22.0397 0.0347655 22.2383 0.100955C22.9535 0.339693 23.3245 0.962938 23.2582 1.77161C23.2054 2.46105 22.6888 3.01785 22.0001 3.12395C21.7086 3.17701 21.4039 3.17701 21.1127 3.12395C20.3576 2.97818 19.8013 2.42138 19.8543 1.46669C19.9338 0.525379 20.5562 0.0082419 21.6159 0.0082419Z" fill="#00A8E1"/>
</svg>
